# xmcd
#
# Track frame offsets:
#	150
#	15884
#	31767
#	48450
#	66490
#	80392
#	93468
#	109314
#	123838
#	142623
#
# Disc length: 2111 seconds
#
# Revision: 0
# Processed by: cddbd v1.5.2PL0 Copyright (c) Steve Scherf et al.
# Submitted via: EasyCDDAExtractor 11.5.0.1
#
DISCID=74083d0a
DTITLE=Paloma San Basilio - Vuela Alto
DYEAR=1999
DGENRE=balada
TTITLE0=Cariño mío
TTITLE1=Soy
TTITLE2=Para aprender a quererte
TTITLE3=Mi ordenador
TTITLE4=Quién eres tú
TTITLE5=Insaciable
TTITLE6=Loca
TTITLE7=Mi soledad
TTITLE8=Contigo aprendí
TTITLE9=La Marea
EXTD=
EXTT0=
EXTT1=
EXTT2=
EXTT3=
EXTT4=
EXTT5=
EXTT6=
EXTT7=
EXTT8=
EXTT9=
PLAYORDER=
